# xmcd
#
# Track frame offsets: 
#        150
#        15032
#        31688
#        47689
#        62774
#        78658
#        99042
#        111658
#        127094
#        139576
#
# Disc length: 2353 seconds
#
# Revision: 0
# Processed by: cddbd v1.5.2PL0 Copyright (c) Steve Scherf et al.
# Submitted via: ExactAudioCopyFreeDBPlugin 1.0
#
DISCID=77092f0a
DTITLE=Clare Free - Be who you are
DYEAR=2010
DGENRE=Blues
TTITLE0=Let me down easy
TTITLE1=I won't lie
TTITLE2=Fool to pride
TTITLE3=My everything
TTITLE4=Is this love I feel
TTITLE5=We were seventeen
TTITLE6=She's an evil women
TTITLE7=Please don't say you love me
TTITLE8=Whenever you need me
TTITLE9=Time of our lives
EXTD=
EXTT0=
EXTT1=
EXTT2=
EXTT3=
EXTT4=
EXTT5=
EXTT6=
EXTT7=
EXTT8=
EXTT9=
PLAYORDER=
